<?xml version="1.0" standalone="no"?>
<!DOCTYPE svg PUBLIC "-//W3C//DTD SVG 20010904//EN"
 "http://www.w3.org/TR/2001/REC-SVG-20010904/DTD/svg10.dtd">
<svg version="1.0" xmlns="http://www.w3.org/2000/svg"
 width="1024.000000pt" height="1024.000000pt" viewBox="0 0 1024.000000 1024.000000"
 preserveAspectRatio="xMidYMid meet">

<g transform="translate(0.000000,1024.000000) scale(0.100000,-0.100000)"
fill="#000000" stroke="none">
<path d="M5605 9905 c-204 -32 -389 -86 -482 -140 -63 -38 -53 -40 17 -5 34
17 114 46 179 65 522 150 1021 90 1416 -170 228 -151 493 -438 618 -670 24
-45 35 -59 31 -40 -4 17 -13 41 -21 53 -19 31 -8 41 16 15 11 -11 47 -42 82
-69 34 -27 97 -92 141 -144 95 -114 183 -284 225 -435 25 -92 27 -114 27 -280
0 -163 -3 -189 -27 -279 -29 -108 -101 -249 -169 -332 -75 -92 -248 -195 -413
-247 -91 -28 -279 -52 -338 -42 -35 6 -39 9 -34 34 2 14 21 106 41 203 20 98
36 196 36 218 0 88 -52 176 -193 326 l-76 81 112 6 c192 9 341 71 462 192 70
70 128 165 140 230 5 27 4 27 -9 -6 -31 -79 -62 -127 -125 -193 -120 -126
-242 -184 -430 -206 -133 -15 -169 -8 -244 52 -99 80 -273 192 -392 254 -60
31 -111 57 -113 59 -2 2 26 0 61 -2 79 -7 242 12 345 38 91 23 262 105 312
149 28 25 21 22 -35 -13 -166 -106 -352 -154 -605 -157 -111 -2 -119 -1 -234
39 -186 66 -399 113 -551 123 -38 3 -36 4 45 30 235 76 548 318 685 531 29 45
10 30 -32 -25 -147 -195 -377 -372 -606 -467 -131 -53 -162 -59 -347 -65 -164
-5 -370 -36 -468 -70 l-40 -14 -42 41 c-148 147 -244 401 -224 592 13 123 73
269 155 379 l31 41 -44 -47 c-170 -178 -209 -518 -87 -759 43 -87 128 -196
178 -231 23 -17 23 -17 -50 -53 -41 -21 -98 -55 -126 -76 l-53 -40 -52 22
c-146 61 -297 192 -380 330 -43 71 -47 72 -18 6 27 -61 96 -151 164 -215 54
-52 220 -142 260 -142 23 0 20 -13 -10 -41 -14 -13 -34 -38 -45 -56 -21 -33
-21 -33 -103 -33 -131 0 -264 40 -356 108 l-35 25 25 -27 c74 -81 374 -177
419 -133 7 6 2 -13 -10 -43 -12 -30 -42 -111 -66 -180 -24 -69 -48 -129 -52
-133 -11 -11 -95 32 -157 81 -108 85 -220 279 -269 467 -36 137 -46 362 -21
486 63 308 324 619 665 789 98 49 250 100 371 126 92 19 308 25 460 12 57 -5
72 -4 45 2 -104 23 -276 32 -378 20 -490 -56 -905 -328 -1103 -722 -72 -143
-89 -224 -89 -418 1 -120 6 -188 19 -250 25 -120 89 -278 147 -365 61 -91 177
-200 247 -232 46 -21 52 -28 46 -46 -4 -12 -29 -92 -56 -177 -86 -270 -125
-441 -148 -641 -11 -101 -31 -263 -45 -359 -39 -291 -49 -424 -49 -670 -1
-247 10 -360 46 -492 l21 -78 -21 -72 c-11 -40 -24 -102 -27 -138 -8 -70 -28
-102 -90 -140 -25 -15 -38 -17 -70 -10 -77 18 -179 11 -300 -20 -64 -16 -124
-30 -134 -30 -17 0 -19 16 -24 198 -8 295 -50 462 -178 722 -122 245 -291 452
-499 607 -280 209 -674 305 -965 234 -479 -116 -843 -491 -962 -991 -28 -117
-25 -409 5 -553 70 -332 248 -638 502 -864 200 -177 366 -262 700 -356 83 -24
241 -39 365 -35 l111 3 0 -140 c-1 -241 15 -668 25 -715 6 -25 23 -65 39 -90
21 -35 33 -75 50 -175 19 -114 41 -195 53 -195 3 0 -26 164 -54 297 -5 28 -19
63 -30 77 -40 50 -49 100 -47 254 1 81 -4 239 -12 352 -15 237 -9 340 20 340
11 0 56 12 102 26 57 18 83 23 86 15 2 -7 41 -57 86 -111 124 -149 121 -135
39 -216 -74 -73 -91 -109 -73 -154 24 -58 113 -66 229 -20 41 16 76 28 76 27
1 -1 18 -32 39 -68 36 -66 36 -66 19 -100 -10 -21 -17 -59 -17 -99 -1 -83 28
-147 84 -184 25 -16 42 -36 46 -54 16 -74 54 -131 105 -158 23 -11 29 -21 29
-48 0 -91 185 -235 285 -221 l40 5 105 -147 c58 -80 120 -166 137 -190 18 -24
33 -45 33 -48 0 -2 -12 0 -26 5 -70 27 -342 -5 -464 -54 -54 -22 -170 -92
-170 -102 0 -3 19 7 43 21 162 100 422 146 620 109 27 -6 26 -7 -30 -43 -62
-40 -235 -183 -268 -221 -30 -35 -4 -17 88 61 45 39 118 95 163 125 l80 55 55
-25 c66 -31 111 -32 184 -5 51 19 126 77 136 106 2 6 59 19 131 29 102 14 132
15 155 5 16 -7 112 -65 214 -130 l184 -119 7 -113 c8 -131 24 -258 38 -309 26
-91 59 -114 263 -185 l107 -37 -127 -45 c-71 -24 -191 -62 -268 -84 -84 -24
-120 -37 -90 -33 52 6 301 75 438 121 77 26 78 26 137 10 33 -10 80 -17 105
-17 25 0 135 -22 244 -50 109 -27 216 -50 237 -49 39 1 39 1 9 9 -91 26 -355
91 -387 97 l-38 6 43 28 c49 32 115 117 158 200 104 207 115 607 24 903 -14
44 -23 81 -22 83 2 1 22 -6 44 -17 60 -29 287 -105 415 -139 62 -17 223 -51
358 -76 521 -98 722 -165 898 -296 28 -22 52 -37 52 -35 0 13 -140 109 -218
149 -118 61 -203 92 -311 113 -49 9 -88 21 -85 26 3 4 13 8 22 8 24 0 144 62
189 98 21 16 88 56 148 87 141 74 161 93 28 26 -57 -28 -105 -51 -107 -51 -2
0 2 14 11 31 8 16 17 48 20 70 3 21 10 39 16 39 6 0 28 12 50 27 41 29 77 87
77 127 0 17 7 26 25 30 13 3 40 22 59 41 46 46 61 111 39 174 -10 30 -12 46
-5 49 50 16 119 112 134 186 10 46 9 61 -6 100 -10 25 -31 57 -47 70 l-30 25
20 38 19 38 17 -39 c9 -21 34 -77 56 -124 33 -73 39 -95 39 -154 0 -87 16
-125 86 -201 63 -68 73 -87 108 -207 17 -56 50 -126 96 -205 38 -66 72 -124
74 -130 2 -5 7 -7 11 -3 7 7 -50 118 -107 208 -16 25 -45 96 -64 158 -33 103
-41 117 -96 178 -73 81 -88 114 -88 199 0 69 -13 109 -85 257 -19 39 -35 76
-35 81 0 6 54 132 119 281 65 149 163 372 216 496 110 254 140 317 164 344 34
38 89 56 223 71 214 24 307 57 421 149 96 79 209 250 320 486 124 262 140 392
66 531 -120 224 -502 418 -829 422 -171 2 -270 -50 -376 -199 -95 -133 -229
-446 -269 -628 -23 -103 -17 -248 14 -324 12 -30 50 -99 86 -154 72 -113 83
-148 66 -222 -14 -65 -194 -480 -391 -903 -40 -86 -60 -113 -60 -79 0 25 -41
66 -116 116 -64 44 -75 56 -85 93 -42 157 -56 170 -194 177 -103 5 -104 5
-165 48 -72 51 -118 69 -202 78 -56 6 -67 11 -100 45 -40 40 -112 69 -174 69
-86 0 -116 60 -107 215 5 90 5 90 52 144 120 139 179 232 237 375 93 233 165
620 178 968 3 70 9 136 15 146 11 21 60 233 122 527 21 105 49 231 60 280 l20
90 127 1 c150 0 260 24 388 84 202 94 332 222 419 414 75 164 103 410 70 602
-52 294 -215 562 -447 735 -85 63 -100 79 -208 224 -191 256 -478 485 -734
584 -110 43 -270 85 -381 101 -96 13 -393 10 -490 -5z m-64 -1344 c321 -58
626 -180 883 -353 170 -115 387 -324 454 -438 25 -42 27 -53 26 -155 -1 -83
-10 -153 -37 -285 -20 -96 -72 -352 -116 -567 -44 -216 -83 -398 -87 -405 -4
-7 -15 11 -26 47 -113 347 -870 868 -1551 1067 l-142 41 -185 1 c-200 0 -255
-10 -407 -70 -181 -72 -345 -213 -438 -376 -30 -52 -30 -46 -5 78 48 234 105
420 258 841 78 215 103 264 176 342 127 135 306 209 596 247 145 18 459 11
601 -15z m-801 -1073 c-154 -62 -255 -127 -360 -230 -240 -234 -400 -557 -475
-956 -33 -179 -46 -320 -52 -572 l-7 -265 -17 75 c-26 110 -42 370 -35 545 12
272 67 733 102 854 41 143 131 269 257 363 173 128 359 191 582 196 30 1 30 1
5 -10z m201 -24 c124 -37 245 -122 400 -281 131 -133 197 -215 289 -354 235
-356 350 -749 350 -1201 0 -200 -16 -338 -56 -476 -61 -209 -139 -331 -304
-474 -275 -239 -607 -386 -848 -376 -81 3 -96 7 -173 45 -131 66 -244 172
-410 386 -290 373 -354 643 -298 1257 34 386 114 672 255 920 138 241 340 442
530 526 105 46 177 54 265 28z m231 -45 c301 -100 605 -251 878 -436 255 -172
486 -401 550 -546 18 -41 20 -67 20 -244 1 -230 -18 -425 -61 -633 -96 -472
-201 -658 -527 -933 -167 -141 -314 -226 -501 -291 -179 -63 -282 -79 -481
-79 -96 1 -188 6 -205 11 -29 10 -29 10 16 11 151 3 422 117 635 268 132 94
299 257 345 338 107 188 153 374 166 671 22 513 -158 1061 -478 1459 -135 169
-341 360 -444 413 -58 31 -20 27 87 -9z m3243 -1155 c289 -50 564 -223 657
-412 19 -39 23 -63 23 -137 0 -88 -2 -94 -68 -256 -37 -92 -67 -173 -67 -180
0 -21 -93 -172 -167 -271 -71 -97 -147 -160 -250 -209 -64 -31 -137 -46 -325
-70 -106 -13 -163 -40 -200 -94 -16 -22 -138 -291 -272 -598 -135 -307 -251
-569 -259 -581 l-15 -23 -94 23 c-120 30 -138 38 -138 65 0 12 52 126 115 253
117 236 256 540 373 816 54 129 66 167 69 225 l4 70 -73 120 c-93 151 -109
191 -115 291 -9 130 51 346 157 571 176 374 309 456 645 397z m-4513 -1059
c65 -216 226 -471 432 -683 150 -155 262 -223 434 -264 129 -30 410 -33 542
-5 207 44 439 139 587 240 l82 56 -6 -32 c-15 -87 -135 -278 -230 -368 -114
-109 -258 -191 -405 -231 -98 -27 -288 -31 -403 -9 -87 17 -219 63 -305 106
-76 38 -205 129 -270 188 l-45 42 40 -44 c63 -68 189 -158 299 -211 139 -68
269 -101 425 -107 140 -7 225 5 343 47 247 87 487 328 569 573 25 73 33 84
103 148 l75 70 -5 -68 c-17 -196 -112 -468 -237 -672 -100 -164 -325 -369
-487 -443 -184 -85 -333 -115 -533 -105 -214 10 -358 58 -593 194 -272 159
-409 269 -541 434 -56 72 -91 124 -188 289 -126 213 -313 436 -394 470 l-33
13 7 61 c9 75 10 76 44 76 16 0 48 7 72 16 80 28 172 45 244 46 75 0 155 -17
155 -32 0 -6 8 -10 18 -10 12 0 13 3 5 8 -9 6 2 21 36 53 l49 44 5 -215 c3
-130 11 -249 21 -300 37 -205 150 -487 256 -645 58 -87 170 -201 246 -253 31
-21 36 -23 14 -6 -70 56 -207 201 -249 264 -97 149 -195 393 -243 606 -20 90
-22 127 -23 399 0 273 2 306 20 364 l20 63 8 -33 c5 -19 22 -79 39 -134z
m-613 -495 c87 -87 193 -234 327 -455 100 -166 133 -252 189 -495 15 -63 29
-123 32 -133 3 -12 -10 -4 -36 22 -27 27 -89 65 -187 113 l-146 73 -43 125
c-46 138 -133 348 -188 455 -46 88 -47 80 -4 -16 88 -193 216 -555 194 -546
-7 3 -49 22 -93 42 -79 36 -83 39 -139 122 -61 90 -195 256 -217 269 -10 6
-10 5 -2 -7 6 -8 46 -58 88 -113 76 -97 156 -210 156 -220 0 -2 -15 0 -32 5
-18 5 -55 9 -83 10 l-50 0 -53 74 c-29 41 -77 103 -108 139 l-55 64 63 79
c118 145 200 303 238 456 l12 47 31 -18 c17 -9 65 -51 106 -92z m2948 -299
c21 -6 49 -11 63 -11 49 0 98 -21 144 -61 39 -35 55 -42 113 -50 93 -13 115
-21 191 -76 67 -48 67 -48 167 -54 55 -3 107 -9 116 -13 22 -10 56 -74 64
-121 10 -61 24 -82 79 -118 68 -43 126 -96 137 -125 13 -33 -16 -90 -57 -114
-18 -11 -81 -51 -140 -89 -73 -47 -117 -69 -138 -69 -56 0 -170 -29 -228 -58
-32 -16 -58 -25 -58 -20 0 19 100 308 140 403 74 177 58 175 -21 -4 -51 -116
-118 -311 -126 -368 -5 -41 -10 -45 -102 -107 -53 -35 -164 -127 -247 -203
-286 -263 -402 -349 -607 -449 l-128 -62 -60 20 -60 20 19 22 c37 41 113 175
161 282 92 206 212 618 244 840 9 55 22 105 35 125 74 122 174 360 213 509
l12 45 18 -42 c14 -34 25 -44 56 -52z m-2387 -475 c70 -73 244 -208 350 -271
36 -21 95 -57 132 -80 l67 -41 69 -139 c109 -220 237 -421 337 -532 26 -29 45
-53 43 -53 -10 1 -142 44 -198 65 l-65 25 -87 133 c-116 177 -221 348 -298
485 -34 61 -65 112 -67 112 -20 0 281 -513 384 -654 23 -33 41 -61 39 -64 -3
-2 -17 5 -33 16 -15 11 -63 43 -106 71 -44 28 -106 75 -139 104 -63 54 -405
456 -418 492 -5 11 -22 87 -40 168 -17 82 -40 174 -51 204 -23 68 -24 86 -1
53 9 -14 46 -56 82 -94z m-655 -10 c28 -7 91 -33 140 -58 50 -25 157 -76 240
-114 165 -76 221 -120 341 -265 316 -383 356 -421 564 -547 103 -62 167 -87
412 -158 104 -30 200 -61 213 -70 100 -65 151 -532 89 -812 -4 -22 -9 -21
-142 49 -135 71 -239 134 -497 299 -189 121 -200 126 -315 148 -201 38 -248
65 -447 254 -173 164 -199 182 -257 176 -45 -5 -157 -56 -163 -74 -2 -5 15
-38 37 -72 l40 -62 -30 0 c-40 0 -128 40 -172 79 -47 41 -82 111 -73 149 7 34
97 123 215 215 79 61 193 168 129 121 -152 -111 -274 -209 -320 -256 l-56 -58
-41 41 c-41 41 -62 88 -62 142 0 46 79 118 267 243 95 64 176 120 179 126 9
14 -15 0 -178 -103 -198 -126 -234 -154 -264 -205 -14 -24 -29 -44 -33 -44
-16 0 -79 77 -90 109 -30 92 2 200 78 255 86 63 186 103 416 167 126 35 88 38
-50 4 -114 -28 -121 -28 -254 20 -88 32 -122 29 -206 -21 -132 -76 -187 -98
-257 -102 -64 -4 -68 -3 -79 21 -6 14 -9 36 -6 49 13 52 209 224 333 293 135
76 197 89 299 61z m2691 -97 c-11 -83 -101 -432 -150 -579 -69 -211 -179 -446
-249 -534 l-23 -29 -70 17 c-103 25 -99 22 -74 54 172 219 330 561 390 839 11
54 28 108 38 120 33 41 137 161 141 162 2 1 1 -22 -3 -50z m-196 -240 c-68
-271 -168 -500 -305 -704 -111 -164 -91 -149 -179 -134 l-75 13 56 60 c75 81
152 200 218 338 56 116 135 336 135 375 0 16 21 38 74 77 41 30 78 60 82 67
17 28 14 -12 -6 -92z m1564 32 c-31 -47 -46 -105 -31 -120 7 -7 -17 -8 -79 -4
-49 3 -90 7 -92 8 -4 4 211 153 221 154 4 1 -4 -17 -19 -38z m-1734 -86 c0
-38 -78 -244 -140 -371 -95 -192 -233 -381 -293 -400 -10 -3 -59 7 -108 22
-88 27 -93 30 -156 98 -101 110 -295 416 -368 581 -30 69 -30 69 -3 54 42 -23
223 -79 301 -94 92 -17 298 -20 381 -4 32 6 60 8 62 6 3 -2 -16 -69 -41 -147
-25 -79 -44 -147 -43 -152 2 -5 27 62 57 149 l53 158 87 28 c47 16 111 41 141
57 66 33 70 34 70 15z m1618 -56 c99 -11 328 -61 362 -79 10 -5 28 -26 40 -45
47 -77 3 -224 -81 -269 l-36 -20 -49 36 c-27 20 -107 65 -179 101 -71 36 -150
78 -175 92 l-45 26 33 -29 c19 -17 91 -60 160 -97 161 -85 247 -152 263 -205
16 -52 4 -104 -33 -146 -52 -59 -59 -59 -114 -6 -35 32 -81 61 -149 91 -55 25
-117 55 -137 68 -21 13 -43 23 -50 23 -21 0 53 -45 171 -106 133 -67 181 -109
181 -159 0 -51 -16 -77 -70 -114 l-48 -33 -29 21 c-15 11 -82 41 -147 66 -66
25 -129 53 -139 63 -16 13 -19 14 -15 2 5 -17 99 -67 174 -92 149 -51 172
-125 70 -224 -49 -48 -199 -134 -211 -122 -3 3 0 26 7 52 17 64 0 81 -85 81
-59 0 -66 -3 -137 -52 l-75 -53 -119 21 c-162 27 -363 80 -531 139 -170 59
-304 113 -305 122 0 3 60 36 133 72 177 87 317 194 607 460 124 115 247 201
365 258 142 68 210 78 393 57z m-1798 -785 c74 -19 184 -52 245 -72 l110 -37
23 -64 c44 -123 66 -280 65 -466 0 -305 -69 -508 -215 -640 -80 -72 -148 -70
-363 14 -38 15 -105 38 -147 51 -43 13 -78 26 -77 29 0 3 19 20 42 36 91 67
169 218 208 408 19 89 20 123 15 272 -8 238 -44 406 -103 483 l-26 34 44 -7
c24 -4 105 -22 179 -41z m1527 -278 c3 -3 0 -28 -6 -56 -6 -28 -8 -57 -5 -62
5 -8 -1 -9 -17 -5 -13 4 -63 16 -111 28 l-87 21 27 25 c40 38 69 55 105 63 29
6 82 -2 94 -14z m-2560 -61 c28 -9 62 -24 75 -35 l23 -19 -46 -1 c-41 0 -141
-14 -180 -26 -13 -4 -17 5 -21 43 -3 27 -9 55 -12 64 -6 15 -2 15 51 3 32 -8
81 -21 110 -29z m751 -439 c56 -31 107 -56 112 -56 6 0 10 -2 10 -5 0 -15 -47
-128 -72 -171 -31 -57 -118 -144 -142 -144 -19 0 -43 35 -57 81 -9 31 -38 307
-39 371 l0 28 43 -24 c23 -13 88 -49 145 -80z"/>
<path d="M4209 6580 c-25 -4 -65 -18 -90 -30 -42 -21 -139 -106 -139 -122 0
-4 21 2 48 13 57 25 162 49 217 49 56 0 141 -23 240 -67 70 -30 87 -34 100
-23 53 44 -54 139 -190 168 -78 17 -136 21 -186 12z"/>
<path d="M5335 6519 c-125 -19 -235 -80 -235 -130 0 -29 19 -32 83 -10 181 63
425 50 592 -29 33 -16 61 -28 62 -26 9 8 -103 116 -143 138 -93 50 -245 75
-359 57z"/>
<path d="M4194 6290 c-22 -11 -54 -35 -70 -52 l-29 -31 36 26 c111 83 253 74
353 -21 24 -24 34 -29 28 -16 -16 30 -79 84 -118 100 -50 21 -151 18 -200 -6z"/>
<path d="M4198 6251 c-44 -18 -168 -108 -168 -122 0 -12 25 -27 50 -31 19 -2
31 5 53 35 30 41 59 56 122 64 l40 6 -22 -24 c-58 -63 -58 -175 -1 -236 34
-36 15 -37 -51 -4 -75 38 -80 34 -8 -6 66 -37 90 -47 81 -31 -5 8 -1 9 12 4
59 -23 73 -20 118 25 45 46 82 133 69 166 -4 10 -2 14 5 10 6 -4 18 -31 28
-60 22 -67 31 -45 10 26 -45 155 -195 234 -338 178z m260 -142 c4 -31 -20 -53
-47 -44 -47 15 -31 79 18 73 20 -2 27 -9 29 -29z"/>
<path d="M5330 6211 c-35 -11 -113 -52 -108 -56 2 -3 31 7 64 20 119 49 248
29 352 -55 40 -32 57 -42 47 -27 -24 37 -93 88 -146 108 -51 20 -160 24 -209
10z"/>
<path d="M5357 6169 c-79 -19 -165 -77 -192 -130 -8 -15 -15 -45 -15 -66 l0
-38 28 55 c30 60 87 106 144 117 l33 6 -22 -24 c-27 -31 -45 -97 -37 -140 9
-51 51 -117 84 -134 87 -45 191 21 226 145 l17 61 24 -36 c24 -36 32 -39 71
-29 15 4 22 14 22 30 0 13 -3 24 -7 24 -5 0 -33 23 -63 51 -96 88 -220 131
-313 108z m208 -123 c21 -31 5 -66 -28 -66 -62 0 -62 88 0 90 7 0 20 -11 28
-24z"/>
<path d="M5318 5803 c7 -3 16 -2 19 1 4 3 -2 6 -13 5 -11 0 -14 -3 -6 -6z"/>
<path d="M4566 5591 c-62 -88 -76 -118 -76 -164 0 -61 53 -113 150 -148 24 -9
24 -8 -4 13 -16 13 -48 43 -72 67 -65 65 -62 85 35 254 18 31 31 57 28 57 -3
0 -31 -35 -61 -79z"/>
<path d="M4880 5333 c-33 -6 -50 -23 -24 -23 19 -1 19 -1 -1 -12 -11 -6 -23
-15 -26 -20 -3 -5 -24 -16 -45 -23 -21 -8 -30 -14 -20 -15 26 0 146 71 146 87
0 7 -1 12 -2 12 -2 -1 -14 -4 -28 -6z"/>
<path d="M4350 5116 c0 -8 25 -33 55 -54 67 -49 209 -97 330 -113 79 -10 107
-9 230 9 77 11 168 30 202 41 35 12 69 21 78 21 8 0 15 9 15 20 0 25 -24 26
-58 1 -65 -45 -259 -76 -427 -68 -86 4 -131 12 -206 36 -98 32 -179 80 -179
106 0 8 -9 15 -20 15 -11 0 -20 -7 -20 -14z"/>
<path d="M4591 4823 c8 -9 37 -27 64 -39 65 -31 139 -31 206 -3 60 26 59 35
-1 14 -78 -27 -216 -10 -251 31 -6 8 -16 14 -21 14 -6 0 -4 -7 3 -17z"/>
<path d="M6331 6214 c-2 -47 -64 -366 -96 -489 -54 -212 -147 -454 -239 -623
-25 -46 -49 -89 -54 -95 -17 -22 -75 -132 -65 -122 6 6 34 45 61 88 110 169
228 446 296 695 52 186 114 525 103 553 -3 8 -6 5 -6 -7z"/>
<path d="M8141 6003 c-19 -19 -64 -108 -137 -273 -148 -336 -173 -398 -167
-420 13 -51 75 -53 108 -4 25 38 291 609 300 646 5 21 1 33 -19 52 -32 33 -49
33 -85 -1z m74 -19 c22 -23 19 -33 -83 -251 -160 -345 -215 -448 -239 -451
-16 -2 -26 4 -34 22 -10 22 3 59 131 344 78 176 149 327 158 336 21 21 46 20
67 0z"/>
<path d="M8457 5929 c-19 -11 -29 -31 -214 -429 -150 -321 -155 -333 -143
-364 11 -30 51 -43 84 -28 13 6 33 30 44 54 257 535 332 696 332 713 0 53 -56
81 -103 54z m73 -24 c20 -24 6 -64 -101 -288 -56 -117 -129 -268 -161 -337
-66 -139 -81 -160 -113 -160 -35 0 -50 25 -38 63 14 42 330 706 344 724 15 18
54 17 69 -2z"/>
<path d="M8751 5763 c-21 -14 -190 -346 -311 -611 -38 -84 -35 -119 13 -136
52 -19 71 9 229 325 81 161 153 310 159 331 15 47 6 82 -26 96 -33 15 -36 15
-64 -5z m61 -20 c10 -9 18 -28 18 -42 0 -27 -233 -509 -296 -613 -26 -43 -41
-58 -58 -58 -27 0 -46 18 -46 43 0 35 302 645 331 670 26 21 28 21 51 0z"/>
<path d="M8929 5258 c-7 -13 -19 -34 -27 -48 -14 -24 -13 -24 3 -5 20 24 48
75 41 75 -3 0 -11 -10 -17 -22z"/>
<path d="M4370 3646 c0 -3 9 -10 20 -16 11 -6 20 -8 20 -6 0 3 -9 10 -20 16
-11 6 -20 8 -20 6z"/>
<path d="M6216 4352 c35 -148 4 -464 -76 -781 -40 -159 -37 -176 5 -27 88 309
126 685 83 823 -17 56 -26 45 -12 -15z"/>
<path d="M5062 9538 c-92 -135 -141 -288 -149 -468 -4 -105 -2 -139 16 -214
12 -49 30 -108 41 -130 21 -46 59 -97 60 -80 0 6 -7 17 -15 24 -21 17 -51 105
-69 200 -40 208 1 445 108 633 24 42 42 77 41 77 -2 0 -17 -19 -33 -42z"/>
<path d="M7505 7989 c-121 -96 -287 -148 -485 -150 -102 -1 -109 -2 -65 -11
63 -11 213 -3 291 17 85 22 211 87 269 139 62 55 57 58 -10 5z"/>
<path d="M6950 7530 c0 -13 159 -87 227 -105 72 -20 264 -18 298 3 18 11 17
11 -10 5 -52 -13 -207 -6 -280 12 -38 9 -107 34 -152 55 -46 21 -83 35 -83 30z"/>
<path d="M7380 2570 c-8 -5 -10 -10 -5 -10 6 0 17 5 25 10 8 5 11 10 5 10 -5
0 -17 -5 -25 -10z"/>
<path d="M7260 2350 c-85 -19 -208 -66 -197 -76 2 -3 45 9 96 26 131 43 206
53 339 47 84 -3 134 -11 177 -26 72 -26 62 -14 -15 19 -80 33 -267 38 -400 10z"/>
<path d="M7270 2246 c0 -3 32 -12 70 -20 93 -21 209 -68 277 -112 30 -19 57
-33 60 -31 11 11 -79 70 -157 103 -88 37 -250 76 -250 60z"/>
</g>
</svg>
